<svg id="Layer_1" data-name="Layer 1" xmlns="http://www.w3.org/2000/svg" viewBox="0 0 557.48 517.09"><defs><style>.cls-1{fill:#fff;}</style></defs><title>dobra</title><path d="M304.51,531.81q-113.71,0-227.44,0c-19.38,0-34-8.16-44.11-24.44-6.69-10.79-8.33-22.85-6.43-35.17,3.38-21.87,7.44-43.63,10.92-65.49,8.29-52.12,16.37-104.27,24.64-156.39a99.85,99.85,0,0,1,4.09-18c3.54-9.92,11.07-15.18,21.67-15.48,7.83-.22,15.67.08,23.49-.17a8.43,8.43,0,0,1,7.9,4q25.38,35.61,51,71.06,25,34.62,50.21,69.11c7.55,10.35,15.63,10,23.45-.91Q271,322.3,298.15,284.64c4.58-6.34,7-6.23,11.61,0,18.47,25.28,36.9,50.58,55.55,75.72,2.28,3.08,5.39,6.29,8.81,7.59,4.65,1.76,9.19-.48,12.28-4.54q6.83-8.94,13.37-18.07,34.68-48.56,69.28-97.18c6.38-8.95,12.87-17.82,19-26.91,2.25-3.31,4.9-4.48,8.75-4.38,6.82.18,13.66,0,20.49-.07,15-.06,25.1,7.92,27.61,22.74,3.9,23,7.29,46,10.85,69.07q9.84,63.67,19.65,127.34c1.93,12.5,4.11,25,6,37.47,4.27,27.77-14.79,58.67-50,58.44-75.64-.49-151.29-.15-226.93-.15Zm-1.17-48q105.71,0,211.41,0a25.51,25.51,0,0,0,5.92-.64c5.42-1.32,8.49-5.32,8.21-10.38a10.35,10.35,0,0,0-9.09-9.79,67.8,67.8,0,0,0-9.46-.41q-167,0-333.95.06-43.24,0-86.49.2c-6.34,0-11,4.37-11.09,9.87-.14,5.82,4.39,10.53,10.68,11,1.83.14,3.66.1,5.5.1Zm.56-122.48c8.07,0,13.35-5.31,13.31-13.48a13.88,13.88,0,0,0-14-13.9c-6.9,0-13.13,6.13-13.24,13A13.83,13.83,0,0,0,303.9,361.37Zm13.17,46c-.08-7.88-5.92-13.8-13.5-13.66A14.08,14.08,0,0,0,290,407.56a13.53,13.53,0,0,0,27.05-.21Z" transform="translate(-25.28 -134.14)"/><path d="M304.27,651c-75.81,0-151.63-.43-227.44.22-27.71.24-48.4-20-51.2-44.17-3.16-27.19,15.69-56,47.17-55.91,72,.31,144,.1,215.94.1,81.3,0,162.61.42,243.92-.23,27-.22,48.44,19.35,50,48.27,1.51,27.38-20.27,51.89-48.49,51.76-76.64-.37-153.29-.13-229.93-.13Zm-1.51-41.94V609q106,0,211.92-.06a23.52,23.52,0,0,0,8.26-1.36,8.69,8.69,0,0,0,5.86-9c-.26-4.44-2.48-8-7-9.42a19.81,19.81,0,0,0-5.9-.78c-13.49,0-27,.06-40.47,0l-271.86-.06c-37.14,0-74.28-.09-111.42.08A18.7,18.7,0,0,0,82.4,591c-3.75,2.5-4.66,7-3.06,11.22,1.83,4.83,5.65,6.88,11,6.88Q196.55,609,302.76,609.07Z" transform="translate(-25.28 -134.14)"/><path d="M321.73,265.65c10.89-5.46,21.61-10.39,31.9-16.09,25.17-13.94,46.9-32.2,65.74-53.92,4.22-4.87,4.3-9.39.55-14.43-4-5.34-9.24-5.78-14-1-7.67,7.64-14.92,15.73-23,23-19.74,17.77-42.86,30.2-66.51,42-9,4.49-16,4.26-24.85-.5-22.46-12.05-45.66-22.78-65.06-39.71-8.26-7.21-15.83-15.22-23.58-23-5.41-5.42-10.53-6.55-14.76-2.88-5,4.36-5.16,11.15-.09,16.85,25.33,28.44,55.77,49.78,90.52,65.16,2.71,1.2,5.36,2.56,8.38,4a24.35,24.35,0,0,1-1.45,2.72q-24.12,32.76-48.26,65.52c-4.91,6.69-5.94,6.84-10.75.25-27.48-37.67-54.83-75.44-82.52-113-4.54-6.15-5.28-11.11-1.19-17.88,11.09-18.39,21.55-37.16,32.2-55.81,4.92-8.61,12.27-12.71,22.17-12.71q106.73.09,213.47.11c9.64,0,17.18,4.22,22,12.42,11.46,19.53,22.52,39.29,33.89,58.87,2.83,4.88,2.07,8.83-1.17,13.25q-31.44,42.9-62.56,86c-7.42,10.25-14.68,20.61-22,30.93-2.39,3.37-4.89,3.8-7.17.73Q347.89,301.77,322.3,267A6.13,6.13,0,0,1,321.73,265.65ZM304,199.11v0h47.45c2.66,0,5.33.07,8-.1,5.94-.38,9.82-4.34,9.81-9.83s-3.53-9.16-9.33-9.72c-2.32-.22-4.66-.19-7-.19q-33.21,0-66.41.11c-12.81,0-25.63-.15-38.44,0-6,.07-9.75,3.73-9.88,9A10.5,10.5,0,0,0,247.61,199a35.34,35.34,0,0,0,4.49.13Z" transform="translate(-25.28 -134.14)"/><path class="cls-1" d="M303.34,483.85H95c-1.84,0-3.67,0-5.5-.1-6.29-.48-10.82-5.19-10.68-11,.14-5.5,4.75-9.84,11.09-9.87q43.24-.21,86.49-.2,167-.06,334-.06a67.8,67.8,0,0,1,9.46.41,10.35,10.35,0,0,1,9.09,9.79c.28,5.06-2.79,9.06-8.21,10.38a25.51,25.51,0,0,1-5.92.64Q409,483.88,303.34,483.85Z" transform="translate(-25.28 -134.14)"/><path class="cls-1" d="M303.9,361.37A13.83,13.83,0,0,1,290,347c.11-6.84,6.34-12.94,13.24-13a13.88,13.88,0,0,1,14,13.9C317.25,356.06,312,361.41,303.9,361.37Z" transform="translate(-25.28 -134.14)"/><path class="cls-1" d="M317.07,407.35a13.53,13.53,0,0,1-27.05.21,14.08,14.08,0,0,1,13.55-13.87C311.15,393.55,317,399.47,317.07,407.35Z" transform="translate(-25.28 -134.14)"/><path class="cls-1" d="M302.76,609.07q-106.2,0-212.41.06c-5.36,0-9.18-2-11-6.88-1.6-4.22-.69-8.72,3.06-11.22a18.7,18.7,0,0,1,9.78-2.6c37.14-.17,74.28-.09,111.42-.08l271.86.06c13.49,0,27-.09,40.47,0a19.81,19.81,0,0,1,5.9.78c4.49,1.43,6.71,5,7,9.42a8.69,8.69,0,0,1-5.86,9,23.52,23.52,0,0,1-8.26,1.36q-106,.11-211.92.06Z" transform="translate(-25.28 -134.14)"/><path class="cls-1" d="M304,199.11H252.1a35.34,35.34,0,0,1-4.49-.13,10.5,10.5,0,0,1-9.37-10.55c.13-5.3,3.84-9,9.88-9,12.81-.15,25.63,0,38.44,0q33.21,0,66.41-.11c2.33,0,4.67,0,7,.19,5.8.56,9.32,4.3,9.33,9.72s-3.87,9.45-9.81,9.83c-2.66.17-5.33.1-8,.1H304Z" transform="translate(-25.28 -134.14)"/></svg>