<svg id="Layer_1" data-name="Layer 1" xmlns="http://www.w3.org/2000/svg" viewBox="0 0 215.36 161.66"><title>entrega</title><path d="M209.58,400.44c4.15-4.41,8.06-9.17,12.59-13.24,5.25-4.72,11.9-6,18.86-6q44.8.06,89.62,0c3.73,0,7.24.53,10.07,3.22a11.31,11.31,0,0,1,2.63,12.45c-1.88,4.41-5.29,6.89-10.21,6.9-12.75,0-25.5,0-38.25,0a94.64,94.64,0,0,0-10.11.11c-1.52.16-4.08,1.41-4.15,2.33-.23,2.74,2.34,2.26,4.13,2.27,15.87,0,31.75.06,47.62,0,8.88,0,15.18-5.71,16.41-14.35a8,8,0,0,1,1.76-3.9q14-16.37,28.22-32.59c5-5.71,12.15-6.49,17.28-2s5.46,11.88.43,17.69c-13.82,16-27.62,31.95-41.55,47.82a28.19,28.19,0,0,1-22.15,10c-14.38-.06-28.76.19-43.13-.08-11.18-.21-20.57,3.31-28,11.69-1.56,1.76-3.11,3.53-4.53,5.14Z" transform="translate(-184.76 -309.95)"/><path d="M326.1,369.6H257.19V310h26.36v17.26h15.94V310H326.1Z" transform="translate(-184.76 -309.95)"/><path d="M184.76,424.72l20.55-20.39,47,47.06-20.57,20.22Z" transform="translate(-184.76 -309.95)"/></svg>