<svg id="Layer_1" data-name="Layer 1" xmlns="http://www.w3.org/2000/svg" viewBox="0 0 477.84 615.01"><defs><style>.cls-1{fill:#fff;}.cls-2{fill:#f2fbfb;}</style></defs><title>lava</title><path d="M544.93,680c-1.61,16-15,27.94-31.65,27.95q-67.2.08-134.42,0-138.67,0-277.34,0c-15,0-26.82-7.9-31.85-21.28-1-2.79-2.1-5.62-1.57-8.72.79-1.93.39-4,.39-5.93,0-110-.24-220,.16-329.95.14-37.48.06-75,.38-112.45.07-8.16-.87-16.29-.52-24.46q0-37.84,0-75.71c0-1.81.34-3.65-.35-5.42a5.11,5.11,0,0,1,.77-4.19,1.46,1.46,0,0,1,.5,1.54c-.43-2.57,1.88-5.19,1.75-8.35,6.24-12.89,16.59-20,30.83-20Q305.45,92.86,508.9,93c21.2,0,36.17,14.28,36.58,35.34.4,20,.53,40-.33,59.93-1.41-5.72-.37-11.54-.61-17.31-.16-4.11-.06-8.24,0-12.35,0,20.81-.27,41.63.07,62.44.3,18.47.7,37,.34,55.42-.29,15.31-.54,30.62-.39,45.93,1.11,115.07.14,230.15.55,345.22C545.08,671.73,543.8,675.84,544.93,680Z" transform="translate(-67.96 -92.95)"/><path class="cls-1" d="M104,634c-1-.09-2-.24-3-.25-9.15-.1-9.12-.09-9.12-9.5q0-192.21,0-384.43c0-7,0-7,7.18-7q208.71-.08,417.42-.16c2.64,0,4.48-.29,4.47,3.69q-.1,198,.05,395.92c0,.5-.08,1-.12,1.5-1.48,1.19-3.21.61-4.82.61q-203.61,0-407.22,0C107.29,634.47,105.6,634.85,104,634Z" transform="translate(-67.96 -92.95)"/><path class="cls-1" d="M386.5,208.22q-64.72,0-129.46.07c-3.59,0-5.12-.49-5.08-4.72q.34-41,0-82c0-4.13,1.35-4.8,5.05-4.8q124.71.11,249.43,0c10,0,14.55,4.6,14.56,14.71,0,24.16-.12,48.32.12,72.48,0,4-1.21,4.45-4.71,4.44q-65-.18-130-.08Z" transform="translate(-67.96 -92.95)"/><path class="cls-1" d="M306.55,658.07q104.49,0,209-.11c4.62,0,6.14,1.22,5.61,5.73-.36,3.13,0,6.33-.11,9.5-.14,7.66-3.34,10.84-11,10.84q-76.5,0-153,0l-252.5,0c-8.9,0-12.7-3.73-12.63-12.71,0-4.29-1.86-9.87.69-12.52s8.21-.75,12.49-.76q100.74-.07,201.5,0Z" transform="translate(-67.96 -92.95)"/><path class="cls-1" d="M160.36,208.21c-21.15,0-42.3-.11-63.45.1-4,.05-4.92-1.12-4.9-5,.14-24.14,0-48.29,0-72.44,0-9.84,4.12-13.94,14-13.95,39.47-.06,78.94,0,118.41-.13,3,0,3.9.63,3.88,3.83q-.3,41.46-.11,82.93c0,4-1.08,4.87-4.91,4.84-21-.19-42-.09-62.95-.09Z" transform="translate(-67.96 -92.95)"/><path d="M130.67,428.27c-1.51-94.18,77.7-177.5,177.37-177,96,.49,173.76,79.46,174.48,176.29.72,97.05-76.63,177.21-174.65,177.65C205.33,605.69,129,519.67,130.67,428.27Z" transform="translate(-67.96 -92.95)"/><path d="M420.74,163.6c.09-20.11,17-37,36.94-37a37,37,0,0,1,37.13,37.19c-.12,19.92-17.16,36.9-37.12,37C438,200.83,420.66,183.38,420.74,163.6Z" transform="translate(-67.96 -92.95)"/><path d="M339,162.18c0-1.66-.09-3.32,0-5,.41-6.65,4.81-11.45,11-12.08a12.76,12.76,0,0,1,13.93,9.52,36.73,36.73,0,0,1,.33,15.34c-1.18,6.55-6.72,10.49-13.41,10a12.79,12.79,0,0,1-12-11.83c-.12-2,0-4,0-6Z" transform="translate(-67.96 -92.95)"/><path d="M379.79,162.77a70.4,70.4,0,0,1,.54-7.43A12.1,12.1,0,0,1,392.43,145a12.79,12.79,0,0,1,12.72,10.39,38.46,38.46,0,0,1,.28,13.36c-1,7.22-6.49,11.71-13.37,11.3a12.92,12.92,0,0,1-12.13-12.75c-.07-1.49,0-3,0-4.48Z" transform="translate(-67.96 -92.95)"/><path d="M298,162.64c.17-2.69-.26-5.67.77-8.6,2.1-6,7.18-9.54,13.29-9A12.33,12.33,0,0,1,323,155.62a61.19,61.19,0,0,1,.24,13.39c-.69,6.77-7,11.54-13.71,11s-11.39-5.76-11.53-12.62C298,165.89,298,164.4,298,162.64Z" transform="translate(-67.96 -92.95)"/><path d="M159.43,180.6c-11.49,0-23,0-34.48,0-7.87,0-13.82-5.15-13.94-11.95-.13-7,5.88-12.56,13.91-12.58q34.24-.1,68.48,0a21.51,21.51,0,0,1,5.41.74c6.13,1.59,9.64,6.34,9.36,12.41s-4.32,10.47-10.77,11.14a131.43,131.43,0,0,1-13.47.23Q171.68,180.62,159.43,180.6Z" transform="translate(-67.96 -92.95)"/><path class="cls-1" d="M155.49,428.86c-1.05-86.67,72.13-154.09,152.81-153.08,81.16,1,151.62,69.16,149.7,155.12-1.85,82.53-68,150.63-152.29,149.91C222.87,580.1,154.83,511.4,155.49,428.86Z" transform="translate(-67.96 -92.95)"/><path class="cls-2" d="M446.12,163.55a11.79,11.79,0,0,1,12.21-11.7,11.65,11.65,0,0,1,11.56,11.79,12.22,12.22,0,0,1-12.25,11.89C451.42,175.5,446.05,169.91,446.12,163.55Z" transform="translate(-67.96 -92.95)"/><path d="M180.68,428.19c0-69,57.37-127.13,128.29-125.18,68.94,1.9,124.65,56.76,123.76,127.43A124.6,124.6,0,0,1,308.64,553.67C229.7,554.07,180.07,488.88,180.68,428.19Z" transform="translate(-67.96 -92.95)"/><path class="cls-1" d="M353.09,465c2.25,12.7,12,20.42,26.5,20.88,3.41.11,6.84,0,10.2,0-18.35,29.25-59.4,49.76-103.42,40.76-45.33-9.28-78.14-47.35-80.54-92.7-2.62-49.22,30.16-90.45,71.59-102.4,39-11.25,86,1.13,113.86,41.41-4.48,0-8.53-.11-12.57,0-13.32.43-24.42,10-25.65,22,1,2,0,3.91,0,5.86.17,21.06-.56,42.12.37,63.18A2.46,2.46,0,0,1,353.09,465Z" transform="translate(-67.96 -92.95)"/><path class="cls-1" d="M391.3,461.32c-3,0-6-.05-9,0-4.27.08-6-2.21-6-6.21,0-17-.11-33.95,0-50.92,0-5.06,2.36-7.06,7.53-7.11,5,0,10,.35,15-.13,4-.39,5.25,1.51,6.09,4.75a106.75,106.75,0,0,1,2.61,36.14c-.56,6.48-2,12.79-3.21,19.17-.65,3.52-2,4.86-5.53,4.42a60.18,60.18,0,0,0-7.48-.06Z" transform="translate(-67.96 -92.95)"/><path d="M234.38,420.18a12.19,12.19,0,0,1-11.82-15c3.5-16.17,12.25-29.38,24-40.62a83.61,83.61,0,0,1,23.86-16.19c4.83-2.14,9.77-3.24,15-1.3,4.46,1.66,7.23,4.74,7.84,9.46s-1.49,8.08-5.23,10.59a21,21,0,0,1-4.42,2.28c-19,7.05-31,20.58-37.06,39.71C244,417.25,240.5,420.23,234.38,420.18Z" transform="translate(-67.96 -92.95)"/></svg>