<svg id="Layer_1" data-name="Layer 1" xmlns="http://www.w3.org/2000/svg" viewBox="0 0 540.81 298.59"><defs><style>.cls-1{fill:#fdfdfd;}.cls-2{fill:#fbfbfb;}.cls-3{fill:#fafafa;}.cls-4{fill:#f9f9f9;}.cls-5{fill:#ebebeb;}</style></defs><title>seca</title><path d="M569.47,247.18c-4-5.89-13.4-10-24.06-6.33-15.32,5.3-31.08,9.17-46.94,12.66-7,1.56-14.61,1.46-20.82,6a3.47,3.47,0,0,1-2.58-.09c-2.92-1-5.78-.64-8.74-.22-7.1,1-14.26,1.73-21.36,2.8s-14.73.31-21.68,2.79c-4,1.43-7.58,1.08-11.66.67-5.65-.59-11.47.54-17.23.92-23.56,1.54-47.14,2.47-70.74,3.28-3.91.13-4.84-.74-5.73-4.32-2.35-9.45-10-14-19.08-14.3-8.35-.25-16.4,6.07-18.1,14-.76,3.55-1.64,4.85-5.82,4.63-26.51-1.43-53.05-2.31-79.53-4.39-7.3-.57-14.72-2.92-22,.11a1.58,1.58,0,0,1-1.76-.28c-2.38-2.06-5.39-2.33-8.27-2.72-6.1-.83-12.23-1.4-18.34-2.14-4.79-.59-9.56-2.09-14.37-.12a2.23,2.23,0,0,1-2.44-.75c-2-1.88-4.48-2.38-7-2.91-9.28-2-18.52-4-27.83-5.83-12.84-2.49-25.08-7-37.61-10.59-10-2.82-19.58,3.87-22.3,12.25-4.11,12.61,2.31,22.48,11.31,25.51A409.61,409.61,0,0,0,94,291.25c5.41,1.09,5.39,1.07,4.18,6.74a35,35,0,0,0-.66,4.56c-2.58,33-5.26,66-7.61,99-.59,8.26-2.47,16.61-.33,24.86.71,2.74.42,4.7-1.37,6.86a17.29,17.29,0,0,0-3.88,12.56C85.42,458.75,93.76,466,106.87,466c6.43,0,12.84-.13,19.26.07,10.21.3,18.39-2.85,23-13.21,3.68,9.09,10.5,12.68,19.21,13,8.07.3,16.17.23,24.25.14a21.29,21.29,0,0,0,11.7-3.16c10.65-7,12.9-20.05,5.39-30.5-.74-1-2-1.73-1.19-3.61,1.85-4.25,1.24-8.76.81-13.25-.82-8.59-1.43-17.2-2.13-25.79,3.67,4.42,8.49,6.67,13,9.17,5.89,3.26,11.4,7.72,18.33,8.41,3.21.32,3.19,1.45,2.87,3.9-.92,7.25-1.65,14.52-2.45,21.79a13.13,13.13,0,0,0,1.72,8.88c1.26,1.84,1,3.24.42,4.87-1.87,5.69-.33,10.61,3.61,14.78a58.8,58.8,0,0,0,16.79,12.72c19.89,9.72,40.5,12.16,62,6.06,12.92-3.67,24.08-10,32.55-20.6,2.86-3.56,4-7.65,2.5-12.22a6.45,6.45,0,0,1,.49-5.35,15.71,15.71,0,0,0,1.45-9.7c-1.21-7.59-2.08-15.25-3.07-22.87-.12-.91-.87-2.06,1.05-2.08,5.21-.06,9.53-2.67,13.91-5,4.77-2.59,9.52-5.23,14.48-8,0,2,0,3.55,0,5.09q-.79,57.15-1.62,114.32a30.32,30.32,0,0,0,1.86,11.3c2.1,5.45,5.81,9.58,11.83,11.08,10.78,2.67,21.75,1.86,32.52.89s15.13-6.15,17.21-17c.88-4.53.5-9.13,1-13.88.35,3.9.61,7.61,1,11.31,1.09,10.21,5.69,18.14,17.13,19.42a150.3,150.3,0,0,0,29.54.16,17.78,17.78,0,0,0,8.33-2.67c6.72-4.37,9.13-10.91,9.06-18.43-.19-21-.6-42.07-1-63.12-.81-48.49-2.15-97-2.34-145.48a37.33,37.33,0,0,0-2.9-15.38c1-.28,1.86-.56,2.73-.74,16.42-3.42,32.46-8.24,48.38-13.44C572.12,273.78,576.9,258,569.47,247.18ZM207,376.19l-.9-.11q-2-23.86-4-47.75c-.56-6.65-1.11-13.29-1.71-19.93-.14-1.57-.27-2.64,2-2.48,11.77.79,23.55,1.42,36,2.13a68.07,68.07,0,0,0-14.12,16.39c-6.31,10.45-9.24,22.11-12.26,33.74C210.39,364.21,208.66,370.19,207,376.19Zm180.3-17c-5.09-18.82-9.85-37.73-27-50.83,9-.49,16.89-.84,24.81-1.42,2-.15,2.68.11,2.67,2.26C387.68,325.8,387.72,342.42,387.3,359.17Z" transform="translate(-32.19 -239.39)"/><path class="cls-1" d="M499.84,409.89l1.59,96.58c.06,3.46.22,6.92.16,10.38-.09,5-2.25,7.41-7.23,7.5q-11.75.23-23.48,0c-4.81-.1-6.79-2.4-7.09-7.73-1-18.17-2-36.36-3-54.54q-2.62-46.47-5.29-92.95c-.18-3.2-.19-6.41-.46-9.6a5.6,5.6,0,0,0-5.8-5.46c-3.09,0-5.14,2.22-5.32,5.83q-2,40.14-4,80.3-2,38-4,76.07c-.37,6.76-1.8,8-8.44,8.09q-9.62.1-19.24.11c-7.56,0-9.82-2.23-9.75-10,.21-22.45.42-44.9.76-67.35.7-46.69,1.94-93.37,1.68-140.08a7,7,0,0,1,10.32-6.19c1.08.6.68,1.55.7,2.37.07,5,.06,10,.16,15,.08,4.43,2.66,7.39,6.47,7.58a7.44,7.44,0,0,0,7.84-7.26c.22-5,.11-10-.05-15-.07-2.17.61-2.88,2.79-2.87q20.21,0,40.41-.17c2.35,0,2.74.93,2.67,3-.17,4.74-.12,9.49-.17,14.24s2.51,7.9,6.77,8c4.5.09,7.56-3,7.6-7.83.05-5.9-.1-11.8-.13-17.7,0-4.53,3.84-6.66,7.9-4.32,2.81,1.63,3.86,4.2,3.89,7.42.21,19,.59,38,.74,57,.13,16.54,0,33.09,0,49.63Z" transform="translate(-32.19 -239.39)"/><path class="cls-1" d="M304.17,438.91a393.76,393.76,0,0,1-48.44-2.68c-3.83-.48-3.87-1.94-3.52-4.83q3.31-27.87,6.46-55.75c.56-5,1.11-9.94,1.38-14.93s-1.91-7.64-5.85-7.9-5.9,1.9-6.85,6.65c-2.15,10.79-4.51,21.54-6.63,32.34-.45,2.28-1.07,2.88-3.18,1.64-5.53-3.22-11.11-6.33-16.67-9.47-1.49-.85-2.06-1.75-1.49-3.72,3.69-12.79,6.65-25.78,11-38.38,6.77-19.53,21.46-29.84,40.49-35.22,1.8-.51,2.62-.14,3,2,1.15,7.3,4.28,13.56,10.27,18.27a24.14,24.14,0,0,0,36.72-7.8c1.81-3.42,3.46-6.85,3.63-10.8.08-2,1-2.31,2.79-1.85,20.13,5.29,35.17,16.45,41.66,37,3.87,12.2,7.09,24.61,10.62,36.92.41,1.43.72,2.65-1,3.56q-8.64,4.59-17.19,9.34c-2,1.08-2.68.81-3.14-1.6-2.11-10.94-4.47-21.82-6.72-32.73-.92-4.45-3.27-6.49-7.29-6.23-3.52.24-6,2.81-5.88,7.18.2,5.48,1,10.95,1.72,16.41,2.42,19.06,4.85,38.13,7.42,57.18.3,2.24-.53,2.52-2.34,2.73A342.8,342.8,0,0,1,304.17,438.91Z" transform="translate(-32.19 -239.39)"/><path class="cls-1" d="M178.61,423.65c-5.13,0-10.26-.09-15.39.05-2.07.06-2.91-.52-3.08-2.68-.87-11.5-1.89-23-2.83-34.49q-1.62-19.93-3.2-39.87c-.25-3.19-2-5-5.2-5-3.4,0-5.11,1.93-5.36,5.27q-1.67,22.42-3.33,44.87c-.73,9.84-1.48,19.68-2.06,29.53-.12,1.92-.81,2.32-2.54,2.31-10.4-.06-20.79-.13-31.18,0-2.89,0-2.72-1.57-2.59-3.42.84-12,1.65-24,2.56-36.06q2.63-34.7,5.37-69.39c.36-4.73.65-9.47,1.19-14.18.52-4.45,2.89-5.95,7.29-5,.88.19,1.41.42,1.39,1.4a17.63,17.63,0,0,0,0,2.3,8.26,8.26,0,0,0,6.62,7.51,6.39,6.39,0,0,0,7.56-3.87c1.16-2.5,2.77-2.76,5.09-2.72,7.06.12,14.12.12,21.17.05,1.71,0,2.68.26,3.47,2a7.53,7.53,0,0,0,8,4.79,7.39,7.39,0,0,0,6.94-6.24c.66-4.05,3.48-2.54,5.59-2.66,2.68-.16,2.4,2,2.55,3.79,2,23.11,4,46.22,5.92,69.33,1.39,16.48,2.66,33,4.06,49.45.18,2.15-.35,2.95-2.63,2.88-5.13-.15-10.26-.05-15.4-.05Z" transform="translate(-32.19 -239.39)"/><path class="cls-2" d="M241.28,295.79c-19.45-1.79-38.91-2.73-58.3-4.66-2.71-.27-4.64-.88-4.11-4.3.48-3.12-1.34-7.24.82-9.22,2-1.81,5.86,0,8.9.29,28.49,2.45,57,3.7,85.61,4.68,3.21.11,4.08.93,4,4.13-.29,9.15-.14,9.13-9.21,9.09S250.51,295.79,241.28,295.79Z" transform="translate(-32.19 -239.39)"/><path class="cls-2" d="M346.51,295.9c-7.68,0-15.38-.11-23.06.06-2.45.05-3.12-.68-2.92-3a43.4,43.4,0,0,0,0-7.3c-.21-2.48.91-3,3.12-3,23.84-.27,47.64-1.51,71.43-3.08,4.72-.31,9.47-.52,14.17-1.07,2.39-.28,2.72.58,2.78,2.66.27,10.42.33,10.44-9.89,11.34C383.64,294.1,365.09,295,346.51,295.9Z" transform="translate(-32.19 -239.39)"/><path class="cls-3" d="M345.93,450.79c-18.6,25.92-71.3,26.18-92.55.1C284.35,453.62,315.08,454.21,345.93,450.79Z" transform="translate(-32.19 -239.39)"/><path class="cls-2" d="M119.78,276c-.18,7.07-.21,7.21-7.09,5.92a446.73,446.73,0,0,1-62-15.91c-5.63-1.91-7.1-7.05-3.49-11.44,2.07-2.52,4.58-2.39,7.32-1.49a327.19,327.19,0,0,0,35,9.93c8.52,1.8,17,4,25.56,5.35,4.2.65,5.44,2.27,4.73,6.11A8.67,8.67,0,0,0,119.78,276Z" transform="translate(-32.19 -239.39)"/><path class="cls-2" d="M486.35,275.77c-.16-8.23-.94-6.34,6.29-7.83,19.66-4.06,39.19-8.58,58.23-15.06,4.23-1.44,7.53-.06,8.75,3.63a7.41,7.41,0,0,1-4.79,9.19c-15.32,4.94-30.69,9.73-46.47,13-6,1.25-12.12,2-18.06,3.47-3.5.87-4.34-.14-4-3.33A26.19,26.19,0,0,0,486.35,275.77Z" transform="translate(-32.19 -239.39)"/><path class="cls-2" d="M299,318.12c-4.15-.09-9.75-5.58-10.06-9.81-.09-1.12.09-2.21,1.15-2.63,2.62-1,2.58-3.16,2.58-5.4,0-9.62-.05-19.24.12-28.85.1-5.25,3.9-8.37,8.2-7,3.92,1.26,5.06,4.37,5.07,8.14,0,9.62.12,19.24.05,28.86,0,2.16.28,3.73,2.74,4.19,1.21.23,1.47,1.23,1.38,2.37C309.89,312.33,303.36,318.22,299,318.12Z" transform="translate(-32.19 -239.39)"/><path class="cls-2" d="M432.81,289.76c-6.28.23-6.28.23-6.45-6.1-.18-6.86-.15-6.59,6.88-7.3,11.6-1.17,23.18-2.62,34.73-4.18,2.86-.39,4.31-.26,3.94,3.14s1.34,7.4-.53,9.71-6.22,1.52-9.49,1.88C452.21,288,442.51,288.83,432.81,289.76Z" transform="translate(-32.19 -239.39)"/><path class="cls-2" d="M180.59,452.75c-4.09,0-8.19.05-12.28,0-4.56-.07-7.12-2.62-7.27-7.1s2.5-7.76,6.93-7.84q12.48-.26,24.95-.1c5,.06,8.15,3.15,8.13,7.36,0,4.63-3.41,7.73-8.56,7.81-2.05,0-4.1,0-6.14,0h-5.76Z" transform="translate(-32.19 -239.39)"/><path class="cls-4" d="M117.15,437.81c4.09,0,8.19-.11,12.27,0,5.08.19,8,3.05,7.9,7.47-.08,4.68-3.12,7.51-8.25,7.53q-11.5.06-23,0c-5.28,0-8.65-3-8.69-7.65s3.6-7.69,9-7.6c3.58.06,7.16,0,10.74,0Z" transform="translate(-32.19 -239.39)"/><path class="cls-3" d="M134.61,279.05c0-7.34,0-7.21,7.42-6.13,6.46,1,13,1.63,19.46,2.3,2.17.23,3.15.93,2.93,3.33-.31,3.29,1.18,7.52-.74,9.68s-6,.14-9.15-.11c-5.23-.43-10.44-1.3-15.68-1.57-3.41-.17-4.9-1.34-4.27-4.81A15.09,15.09,0,0,0,134.61,279.05Z" transform="translate(-32.19 -239.39)"/><path class="cls-5" d="M149.06,430.21c4.07,2.33,1.3,4.68.34,7C146.43,433.36,146.43,433.36,149.06,430.21Z" transform="translate(-32.19 -239.39)"/></svg>